<svg width="32" height="32" viewBox="0 0 32 32" fill="none" xmlns="http://www.w3.org/2000/svg">
<path d="M32 6.076a13.14 13.14 0 0 1-3.769 1.031A6.601 6.601 0 0 0 31.115 4.1a13.195 13.195 0 0 1-4.184 1.597A6.563 6.563 0 0 0 22.155 2c-3.626 0-6.563 2.937-6.563 6.563 0 .514.058 1.016.17 1.496C10.304 9.87 5.47 7.613 2.228 4.149a6.52 6.52 0 0 0-.888 3.303c0 2.278 1.16 4.287 2.924 5.463A6.533 6.533 0 0 1 1.28 11.1v.083c0 3.183 2.264 5.841 5.272 6.445a6.575 6.575 0 0 1-2.892.11c.816 2.548 3.187 4.404 6.004 4.454A13.172 13.172 0 0 1 0 28.026a18.575 18.575 0 0 0 10.063 2.948c12.072 0 18.684-10.004 18.684-18.684 0-.285-.007-.568-.02-.85A13.348 13.348 0 0 0 32 6.076z" fill="#00c6ff"/>
</svg>
